<svg xmlns="http://www.w3.org/2000/svg" width="583" height="583" viewBox="0 0 176.15 583.54" fill="#fefefe"><path d="M35.06 102.52c22 38.9 54.94 52.8 98.63 43.5l-9.22 28.6a414.51 414.51 0 0 0-15.82 139.6c3.78 67.56 23.62 130.06 57.54 188.4 14.2 24.4 7.38 55.33-15.36 71a68.13 68.13 0 0 1-13.16 7c-8.5 3.4-17 3.73-26.28 1.68a59.24 59.24 0 0 1-31.95-18.39c-10.82-11.6-17.2-25.6-24.2-39.27A493.26 493.26 0 0 1 3.82 354.8C-6 269.37 3 186.24 33.32 105.6a54.87 54.87 0 0 1 1.14-2.75c.05-.1.26-.15.6-.33zM110 132.1c-31.15 2.06-66.3-27.66-66.22-66.33C43.8 33.63 75.1-.75 111.24 0s65.08 32.9 64.9 66.3C176 106 142.62 133.84 110 132.1z"/></svg>
