<svg xmlns="http://www.w3.org/2000/svg" width="378" height="378" viewBox="0 0 378.09 378.33"><path d="M362.45 75.63C338.1 36.4 302.6 16.08 255.57 18.5 240 19.3 225 22.86 211.1 30.3a129.91 129.91 0 0 0-29.74 22.24l-2.8-5C151.52.84 96.45-9.86 56.3 8.48 21.7 24.28 2.1 52.06.16 90.4c-2 39.1 14.43 69.22 48.12 89.5 3.2 1.92 2.52 2.72.5 4.83-30.52 32.06-38 69.95-27 111.84 10.2 39 53.7 83 111.88 81.75 49.48-1 95.6-35.83 108.3-83.65a116.11 116.11 0 0 0 2.73-45c-.58-4.45 1.23-4.9 4.86-4.35 5.1.74 10.24 1.64 15.36 1.6 28.52-.13 53.13-10.4 74.42-29.17C379.8 182 390.4 120.7 362.45 75.63zM45.72 96.22c0-27.72 21.84-49.14 50.1-49.13 29.6-1.55 50.23 25.5 50.45 49 .24 26-24.8 51.9-51.58 50.6-26.56-1.33-48.96-23.24-48.96-50.48zM129.46 332c-32.22-1.1-66.54-31.65-66.1-68.9.4-33.47 31.4-68.68 71.1-67.27 34.48 1.22 67.17 33.37 65.5 68.53 1.5 35.4-33.45 68.94-70.52 67.65zM262 200.83c-32.66-.5-67-32-66.7-69.26.26-34.95 31.63-68.52 67.9-66.5 36.55-1.8 68.06 30.76 68.22 66.68.2 38-34.43 69.62-69.43 69.07z" fill="#fefefe"/></svg>