<svg xmlns="http://www.w3.org/2000/svg" width="445" height="445" viewBox="0 0 382.28 445.91"><path d="M377.36 192.62c-39.64-60.5-91.1-108.2-154.86-142.44A416.39 416.39 0 0 0 38 .22a154 154 0 0 0-18 .09C9.7 1.16.15 14 .15 26.57Q.1 99.8.18 173c0 1.18-.72 2.65.74 3.6C20.83 156 50.77 159 67 174.66c21 20.35 18 50 4.16 65.44-18.55 20.76-48.75 23.48-71 2.4v5.78q0 86.46-.06 172.92c0 9.38 2.6 17.6 11.07 21.92s17.83 3.5 25.76-1.5l85.24-54.7c2.66-1.7 2.16-2.55-.06-4a51.39 51.39 0 0 1-10.74-9.66c-21.88-26.13-18.4-68 7.55-91.2 36.25-32.4 93.9-13.77 105.17 34 .35 1.5.84 3 1.3 4.56.83-.43 1.3-.62 1.7-.9q71.65-45.88 143.3-91.76c12.73-8.13 15.55-22.3 6.98-35.38zM166.1 166c-15.68 1.68-37.63-15.27-37.1-36 .48-20.4 16.7-36.9 37.3-36.88 20.22 0 36.38 16.62 36.9 36.78.5 20.84-21.5 37.73-37.1 36.1z" fill="#fefefe"/></svg>
