<svg xmlns="http://www.w3.org/2000/svg" width="432" height="432" viewBox="0 0 432.02 430.88" fill="#fefefe"><path d="M431.88 90.68c.05-27.15-10.6-49.38-30.08-67.68C384 6.32 362.3 0 338.25 0L87.4.26C40.28.42 0 41.28 0 88.38Q0 215 0 341.7a90.7 90.7 0 0 0 1.57 16.37c4.05 22.26 16.58 39.2 33.57 53.3 15.28 12.7 32.86 19.38 52.7 19.43H343.7c2.33 0 4.67 0 7-.18 41.4-3.4 81.7-43.76 81.34-89.65l-.15-250.3zm-91.5 285.38l-124.43-.18H90.5c-19.17 0-34.3-14.75-34.47-34v-60.46q0-95 0-189.9C56 71 70.5 55.7 91.05 55.17c15.82-.42 31.65-.15 47.47-.15l198.9-.15c19.54-.1 31.26 10.3 36.7 24.37A29.38 29.38 0 0 1 375.88 90q0 125.2.06 250.37c.06 18.82-15.02 35.98-35.57 35.7zM81.08 235.93h111.6c2.18 0 3.3.32 3.3 2.93q-.1 55.42 0 110.93c-2.08.08-2.72-1.5-3.7-2.47l-27.18-27.24c-2.46-2.56-3.85-2.42-6.27 0l-39.1 39.35c-2.58 2.63-5.14 3.8-8.74 3.5a39.08 39.08 0 0 0-9 0c-9.1 1.34-16.9-2.28-24.76-5.95a4.74 4.74 0 0 1-2.86-2.57c-2.56-7-5.1-13.66-5.72-21.4-1-12.44 3-21.23 12.32-29.3 10.82-9.34 20.33-20.17 30.62-30.13 2.7-2.64 3.08-4.1.14-6.92-9-8.63-17.75-17.6-26.58-26.43-1.17-1.12-2.24-2.32-4.1-4.3zM236.1 83.9l30.1 27.66c2.87 2.76 4.27 3.36 7.3.18l39.65-40.88a8.15 8.15 0 0 1 7-2.9 42.92 42.92 0 0 0 9.48 0c9.34-1.45 17.18 2.7 25.2 6.24a5.26 5.26 0 0 1 3 3.1c2.7 7.1 5 14.06 5.42 22 .7 11.9-2.34 20.63-11.8 28.43-11.14 9.2-20.82 20.12-31.3 30.1-2.6 2.48-3 3.85-.13 6.57 10.1 9.67 19.9 19.66 29.72 29.46-.62 1.6-1.78 1.1-2.67 1.1q-53 0-105.95 0c-2.57 0-4.25.05-4.24-3.53l.1-107.95a3.83 3.83 0 0 1 .24-.91z"/></svg>
