<svg xmlns="http://www.w3.org/2000/svg" width="485" height="485" viewBox="0 0 320.55 485.26" fill="#fefefe"><path d="M188.7 315.05l-.05-52.47a14.75 14.75 0 0 1 2.19-8q18.56-31.33 36.94-62.78c3.82-6.54 6.4-13.52 6.4-21.24 0-6.34-2.45-11-7.37-15.5-8.53-7.74-18.1-10.07-29.23-9.9l-75 .12a54.6 54.6 0 0 0-21.43 4c-13.26 5.57-18.8 17.92-13.65 31.5 4 10.6 10.56 19.95 15.9 29.9l26.4 48.1a14.81 14.81 0 0 1 2 7.56q-.1 51 0 101.95c0 3.8-.8 5.13-4.86 5-9-.33-18-.1-27-.1-15.9 0-29.2-12.78-30.24-28.7l-3.73-50.77c-.18-2.64-1.3-4.1-3.25-5.66C16.6 251.4-4.54 203.3.8 144.85 6.5 82.7 40.8 39.78 96.2 13.37c31.3-14.92 64.63-16.2 98.14-9.48C259.5 17 311.88 73.28 319.3 139.3c6.94 61.9-14.86 112.23-64.6 150.08-2.72 2.07-4.16 4.1-4.4 7.64l-3.57 47.28a30.76 30.76 0 0 1-30.55 28.9c-7.67 0-15.34-.24-23 .1-3.93.18-4.6-1.2-4.57-4.77l.1-53.48zm-44.97.75l.07-51.47a18.28 18.28 0 0 0-2.48-9.42l-36.65-66.35c-3.1-5.72-6.5-11.4-6.1-18.62.23-4.12 1.7-6.5 5-8.3 5.87-3.18 12.37-4.07 18.84-4.13l82.42-.25a6.65 6.65 0 0 1 1 0c13.64 2 20.45 7.5 13.92 22.3-6 13.72-15 25.88-22.46 38.83-6.28 10.8-12.78 21.44-19.28 32.07a15.45 15.45 0 0 0-2.31 8.44l.14 109.43c0 3.84-.86 5.14-4.88 5-7.48-.34-15-.37-22.47 0-4.16.2-4.84-1.32-4.8-5l.05-52.54zm15.97 133.37q-28.45 0-56.92 0c-7.13 0-12.06-3.33-14-9.3a9.74 9.74 0 0 1 5.74-11.82 31.6 31.6 0 0 1 11.68-1.92l110.85.1c4.75 0 9.87.46 12.5 5.33 5.12 9.5-2.3 17.5-11.4 17.57l-58.46.03zm1.77-58h56c10.76 0 15.4 7.15 11.36 17.15-2.16 5.34-7.1 5.67-11.6 5.72l-56.46.1c-19.15 0-38.3.1-57.46-.08-4.4 0-9.1-.5-11.43-5.27-4.43-9.08.75-17.6 11.67-17.63l57.92.01zM160 485.15c-7.48 0-15 .3-22.44-.1-4.75-.26-9.52-1.18-11.77-6.6-1.66-4-.94-10 2.67-12.28 3.12-2 6.34-4.1 10.5-4.06l42.9.12c9 .15 16.7 8 11.94 17.44-2.34 4.65-6.7 5.17-10.85 5.38-7.7.38-15.35.1-22.95.1z"/></svg>
