<svg xmlns="http://www.w3.org/2000/svg" width="379" height="379" viewBox="0 0 364.69 379.37"><path d="M275.93 379.33h-28.46c-10.67-.07-18.5-8.64-18-19.63.46-10.5 8.8-17.94 19.38-16.72 3.4.4 3-1.12 3.1-3.2.8-12.34 9-21.46 21.12-23.68 12.38-2.25 24.14 3.74 29.3 14.8 1.67 3.57.55 8.3 2.65 10.9 1.9 2.36 6.76 1.76 9.83 4 6.5 4.65 8.48 11.74 5.92 19.26-4.3 12.63-8.1 14.72-21.4 14.34h-2zm-71.05-30.63c6.8.06 12 5.42 12.24 12.58.17 5.82-6.68 13.17-12.37 13.27-5.9.1-12.94-7.9-12.8-14.54.14-6 6.22-11.37 12.92-11.3z" fill="#fefefe"/><path d="M63.3 376.77c-3.57.12-8.22-4.32-8.25-7.86 0-3.77 4.4-8.75 7.9-8.87 3.85-.13 9 5.1 8.88 9-.1 3.27-4.9 7.6-8.53 7.73z" fill="#fdfdfe"/><path d="M184.16 369.14c-.17 4-4 7.82-7.64 7.63-4-.2-7.83-4.34-7.6-8.23.26-4.07 5.08-8.62 8.94-8.44 3.07.14 6.45 5 6.3 9.04z" fill="#fcfdfe"/><path d="M40.92 363.67c2.4.5 4.24 1.68 4 4.54a4.85 4.85 0 0 1-5.15 4.84 4.07 4.07 0 0 1-4.19-4.51c.23-3 2.14-4.66 5.34-4.87z" fill="#f6f9fc"/><path d="M361.57 75.15C325.16 50 288.2 25.67 251 1.7c-3.3-2.13-6.23-2.22-9.77-.5L185.5 27.97a10.55 10.55 0 0 0-4.31 4Q135.1 101.1 89 170.24 46.27 234.15 3.5 298c-5 7.5-5 7.56 2.43 12.73 25.18 17.43 51.73 32.7 77.63 49 10.4 6.54 22.63 7.08 32.9 10.05 3.13-.34 5-.43 6.75-.75a163.78 163.78 0 0 0 49.77-17 20.29 20.29 0 0 0 7.47-6.28l97.5-139.54 85.1-122.6c2.42-3.6 2.4-5.78-1.46-8.45zM149 349c-7.32 5.47-22.68 10.6-32.15 10.7-5.67-.34-11.45-1.24-17-4.74l-62.48-38.42c-4-2.42-6.1-6-8.23-9.7-1.74-3 .37-5.28 2.6-6.72 8.72-5.64 18-10.44 28.6-10.35a34.22 34.22 0 0 1 17.06 4.94l65.93 39.45c3.47 2.06 5.64 5.13 7.87 8.2s.03 4.97-2.2 6.65zm65.78-308.9q-72.5 107.66-144.9 215.4a19.41 19.41 0 0 1-4 4.39l-22.14 17.9c-.9.73-1.7 1.8-2.74 2.13-2.76.88-6.18 3.18-8.35.9-2-2.14.84-4.82 2.27-7Q107.53 165 180.2 56.26C188 44.68 198.87 36.5 211 29.93c2.37-1.3 5.1-1.26 8.3-1.13a26.28 26.28 0 0 1-4.51 11.29z" fill="#fefefe"/></svg>
