<svg xmlns="http://www.w3.org/2000/svg" width="379" height="379" viewBox="0 0 379.84 379.73" fill="#fefefe"><path d="M91.35 208.75c34.08 1.65 62-9.18 85.2-32.3s33.58-51.22 32.4-85.1l26.94 36.18Q303.54 218.77 371.24 310c2.48 3.32 2.93 5.4-.06 8.7-5.48 6-10.62 12.4-15.52 18.9-10.8 14.34-26.1 23.57-39.2 35.28-2.57 2.3-3.94.08-5.5-1.07q-34.74-25.65-69.4-51.4L94.38 211.2c-.65-.48-1.26-1.02-3.03-2.46zm6.55-12.9C49.45 197.57-.26 154.2 0 97.06.25 43.4 47-1.73 100.46.05 152.5 1.78 196 44.9 196 98.13s-44.7 97.72-98.1 97.72zM54 379.62c-8.5 0-17-.28-25.47.08-8.1.35-11.83-2.82-12.26-12.2-.83-18.28-.3-36.62-.2-54.94 0-5.6 3.46-10.86 7.8-12.18 4.94-1.5 8.6.68 11.8 4.38 2.72 3.13 6 5.82 8.74 8.9 1.74 1.93 2.84 1.88 4.65 0l20.8-20.9c7.2-7.35 14.14-7.4 21.38.05 4.17 4.3 8.67 8.3 12.65 12.77 6.3 7.07 6.55 11-.17 18.45-7 7.78-14.7 15-22.2 22.3-1.87 1.83-2.57 2.93 0 4.95a127.52 127.52 0 0 1 10.19 9.55c5.58 5.55 5 10.46-1.24 15.13a17.74 17.74 0 0 1-12 3.68c-8.13-.26-16.3-.06-24.47-.06zM339.26 15.9h25.47c10.7 0 15 4.38 15.06 15v49.43a21.23 21.23 0 0 1-1.73 8.68c-2.74 6.4-9.47 8.6-15 4.26A106 106 0 0 1 352 82.63c-2.1-2.2-3.35-2.74-5.8-.2-7 7.14-14.27 14-21.45 20.9-7.77 7.5-12.2 7.45-19.8-.13l-12.7-12.73c-6.68-7-6.7-11.7-.17-18.88 6.93-7.63 14.2-15 21.48-22.27 1.94-1.95 2.24-3.1.05-5.07-3.7-3.34-7.1-7-10.64-10.54-3.4-3.36-3.62-7.2-1.92-11.45 1.6-4 4.6-6.1 8.8-6.15h29.45z"/></svg>