<svg xmlns="http://www.w3.org/2000/svg" width="381" height="381" viewBox="0 0 381.61 296.72"><path d="M33.2.12c6.4-.36 11 2.1 15.28 6.44l77.92 77.5c1.8 1.8 2.87 1.6 4.33-.13a21.59 21.59 0 0 1 3.18-3.16c1.87-1.47 2-2.6.1-4.28-3.55-3.27-6.82-6.84-10.3-10.18-1.3-1.24-1.76-2.14-.28-3.62 6-6 10.93-13.32 19.78-16.16a19.11 19.11 0 0 1 18.92 3.64A215.11 215.11 0 0 1 179.84 67c2.25 2.3 3.54 2.27 5.27-.24a18.59 18.59 0 0 1 3-3.29c1.9-1.68 1.34-2.9-.32-4.4l-14.17-13.34c-1.9-1.7-1.95-2.7-.18-4.73a44.87 44.87 0 0 1 19-13.16 14.87 14.87 0 0 1 16.11 3.4c6.36 6.12 12.67 12.3 18.66 18.8 2.62 2.84 4.38 2.85 6.6 0a8.87 8.87 0 0 1 1.87-1.63c2.47-1.74 3-3.23.33-5.6-4-3.5-7.47-7.6-11.4-11.18-2.23-2-1.8-3.12.2-5 5.5-5.14 10.73-10.5 19.34-9.46a15.83 15.83 0 0 1 9.83 4.39l74.17 74.17c9.34 9 14.3 19 15.6 31.67 1 9.74 3.15 19.36 4.54 29.06a11 11 0 0 0 3.57 6.82l24 23.27c7.52 7.27 7.57 11.22.05 18.68q-44.34 44-88.7 87.9c-4.75 4.7-7.38 4.86-12.17.1l-26.18-26.8a21.79 21.79 0 0 0-10.25-6.5q-63.2-17.27-126.3-35a12.94 12.94 0 0 1-9.65-10.28l-9.7-50.43c-.25-1.3-1.07-3.2.67-4s2.65.87 3.68 1.9l18 18c4.42 4.32 13.14 3.23 14.67-1.78 1.07-3.47-.9-6-3.06-8.28-3.8-4-7.74-7.8-11.63-11.68Q61.34 104.3 7.28 50.27C4.55 47.54 2.1 44.7.8 41s-.87-7.23.25-11.1C4.2 19 12.07 11.84 19.7 4.5A16.54 16.54 0 0 1 33.21.12z" fill="#fefefe"/></svg>
