<svg xmlns="http://www.w3.org/2000/svg" width="372" height="372" viewBox="0 0 372.25 372.17" fill="#fefefe"><path d="M88.9 151.7c-4.38-4.78-8.6-9.74-13.17-14.3L13 75.07C-11.06 50.9-.16 10.2 32.85 1.66c16.4-4.24 31-.4 43.4 12.08l72.34 71.8c1 1 2 2.15 3.6 3.78-14.75 5.16-27.66 12.53-38.35 23.53A115.32 115.32 0 0 0 88.9 151.7zm188.1 172c0-26.54 20.78-46.75 48-46.74 26.52 0 46.8 20.7 47.18 47.23.34 25-23.35 49.08-49.2 48-24.6-1.12-45.98-22.66-45.98-48.5zm-2-109.86q25.13 24 50 47.65l-.27 1.65c-16.88.17-31.63 5.28-43.44 17.38s-18 26.5-18 42.88l-50.52-48.5c15.4-5.67 28.24-13.33 39.08-24A92.9 92.9 0 0 0 275 213.84z"/></svg>