<svg xmlns="http://www.w3.org/2000/svg" width="329" height="329" viewBox="0 0 329.62 214.72" fill="#fefefe"><path d="M251.73 70.76c2.57 27.24 15.77 40.17 44.13 44.14.1 1.6-1.3 2.22-2.18 3.1l-84.33 85.25c-15 15.75-37.5 14.9-52.23-.2L9.85 54.94c-17-17-11.18-45.62 11-53 12.64-4.2 24-1.75 33.8 8.13l126.12 126.16c2.65 2.66 3.8 1.58 5.77-.42q30.32-30.45 60.76-60.8c1.22-1.24 2.53-2.45 4.42-4.25zM295.8 36.5c19.48 0 33.86 14.32 33.83 33.65 0 19.66-14.86 34.66-34.25 34.64-19.1 0-33.64-14.94-33.7-34.57-.06-19.8 14.05-33.74 34.13-33.72z"/></svg>
