<svg xmlns="http://www.w3.org/2000/svg" width="173" height="173" viewBox="0 0 108.34 173.9"><path d="M51.7 141.23l.06-25.48c.06-3.3-.35-4.7-4.34-4-12 2-24 3.44-36.07 5.08a27.9 27.9 0 0 1-4 .36c-6.82 0-8.92-3-6.27-9.16q22-51.3 44.06-102.55c.26-.6.53-1.22.83-1.8C47.47.73 49.8-.52 53 .2s3.75 3.27 3.74 6.16v44.47a69.28 69.28 0 0 1 0 7.49c-.42 3.73 1.4 4 4.4 3.6l37.54-5.37c3.1-.44 6.73-1.75 8.8 1.36 1.8 2.7.78 6-.53 9Q85 117.5 63.26 168.1c-.26.6-.56 1.2-.8 1.82-1.23 3-3.4 4.53-6.67 3.82s-4.07-3.07-4.06-6q0-13.25 0-26.48z" fill="#fefefe"/></svg>
