<svg xmlns="http://www.w3.org/2000/svg" width="488" height="488" viewBox="0 0 488.28 427.76" fill="#fefefe"><path d="M91.44 262.85c25.36-26.72 21-65.82-.53-87.13.93-1.46 2.4-.76 3.6-.76l346.38-.2c25.66-.1 41.15 16.7 45.62 32.42 8.14 28.66-12.63 56.2-42.35 56.22q-173.7 0-347.38 0c-1.77-.01-3.62.53-5.33-.55zM263.26 427.7c-24.47 0-48.95.1-73.43-.05-11.66-.07-15.64-4.2-15.73-15.65l-.23-123.38c0-3.92 1.08-5 5-5q20.72.36 41.45 0c3.83-.06 4.72 1.12 4.7 4.78l-.18 82.92c0 4.5 1.33 5.5 5.63 5.47q52.7-.27 105.4-.06c11.1 0 15.67 4.83 15.7 15.8 0 6.82.43 13.68-.1 20.47-.87 11.26-2.77 14.43-14.8 14.6l-73.42.12zM225 82.87l.08 66.93c0 3.8-.85 5.15-4.94 5.07-14-.26-28-.2-41.95 0-3.3 0-4.26-1-4.26-4.2l.1-135.84A14.77 14.77 0 0 1 188 .21a336.95 336.95 0 0 1 24 0c9.22.35 13 4.83 13 15.2v67.45zM47.4 267.08c-26.95 0-47.33-20.62-47.4-48-.07-26.8 20.15-46.62 47.06-47.08 28.65-.5 48 23.44 48.37 46.8C95.9 246.5 70 269 47.4 267.1z"/></svg>
