<svg xmlns="http://www.w3.org/2000/svg" width="210" height="210" viewBox="0 0 210.46 209.4"><path d="M105.3 21.76a65.12 65.12 0 0 1 31.76 7c17.43 8.55 32 20.16 40.77 38.06 8.25 16.76 9 33.66.55 50.34-6.24 12.3-13.23 24.2-20.36 36-12.7 21-39.6 26.33-58.27 22.05a70.28 70.28 0 0 1-24.54-10.5C65 157.64 53.7 152.2 44.86 143c-14.32-14.9-25.27-47.1-6.32-70.78C47.47 61.07 54.4 48.47 64 37.7c9.2-10.3 20.85-14.3 33.85-15.9a62.17 62.17 0 0 1 7.45-.05zm70.02-2.26c-.28 7.8-3.36 14.1-7.68 20-1.42 1.92-2.43 1.1-3.6.1-9-7.7-18.1-15.14-29.6-18.87-1.8-.6-1.6-1.52-.92-3 5-11 17.3-19.77 31.1-17.27 5.4 1 6.52 5.3 8.43 8.77 1.7 3.07 2.2 6.92 2.3 10.28zM140.9 175.92c-3.45 6.05-2.37 11-1.53 16.07.9 5.35-1.28 9.5-5.77 12.3-8.37 5.2-17.35 6.88-26.63 2.93-10.3-4.4-13.4-15-7.7-24.64.86-1.44 1.9-1.15 3-1 12.83 1.6 25.4.8 38.63-5.66zM22.13 104a63.3 63.3 0 0 0 12 35.25c1.65 2.32 1.22 3.45-.78 5.18-11.83 10.2-25 7-31-7.72A32.29 32.29 0 0 1 0 124.61c-.06-8.22 3-12 10.9-14.37 2.06-.6 4.27-.94 6.15-1.9 1.66-.86 2.96-2.44 5.1-4.33zm70.04-88.73c-1.74 1.7-3.73 1.37-5.45 1.88-9.14 2.72-17.94 6.12-24.66 13.28-2.27 2.4-4.06 2.57-6.55.17-3.53-3.44-6.28-7.14-4.84-12.26 1.68-6 4.8-11.3 11.48-12.5C73.68 3.77 83.6 7.3 92.17 15.27zm95.18 59.85c10.7 3.22 17.42 9.7 21.56 18.9a15.24 15.24 0 0 1 .7 11.66c-3.54 9.9-12.55 12.88-21.6 7.27a1.61 1.61 0 0 1-.78-2.36 48.87 48.87 0 0 0 3.27-17.51c-.06-5.87-1.5-11.47-3.15-17.97z" fill="#fefefe"/><path d="M56.1 188.05c-5.5-.12-7.77-2.93-6.7-8l4-18.44c.47-2.4 1.32-2.7 3.26-1.46l17.26 10.82c.78.5 2.85 1.06 1.4 2.4-5.72 5.23-11.13 10.88-18.08 14.6a2.34 2.34 0 0 1-1.13.08z" fill="#fefefd"/></svg>
