<?xml version="1.0"?>
<svg xmlns="http://www.w3.org/2000/svg" xmlns:xlink="http://www.w3.org/1999/xlink" xmlns:svgjs="http://svgjs.com/svgjs" version="1.1" width="512" height="512" x="0" y="0" viewBox="0 0 512 512" style="enable-background:new 0 0 512 512" xml:space="preserve" class=""><g><script/><g xmlns="http://www.w3.org/2000/svg"><g><g><path d="m323.068 453.72c99.438-35.337 133.001-116.639 164.454-209.205 6.451-18.985 14.916-38.675 22.021-54.106 6.761-14.684-.989-31.916-16.396-36.701-100.973-31.362-140.951-99.593-192.289-107.004-47.097-6.799-82.912 28.451-94.721 69.838-34.962-25.015-84.893-30.252-117.519 4.452-35.565 37.83-24.441 116.161-83.958 203.699-9.081 13.357-4.436 31.676 9.98 38.947 15.15 7.642 34.011 17.767 50.857 28.597 81.274 52.248 162.472 96.279 257.571 61.483z" fill="#ff5492" data-original="#ff5492" style=""/></g><g><path d="m323.068 453.72c99.438-35.337 133.001-116.639 164.454-209.205 6.451-18.985 14.916-38.675 22.021-54.106 6.761-14.684-.989-31.916-16.396-36.701-100.973-31.362-140.951-99.593-192.289-107.004-47.097-6.799-82.912 28.451-94.721 69.838-34.962-25.015-84.893-30.252-117.519 4.452-35.565 37.83-24.441 116.161-83.958 203.699-9.081 13.357-4.436 31.676 9.98 38.947 15.15 7.642 34.011 17.767 50.857 28.597 81.274 52.248 162.472 96.279 257.571 61.483z" fill="#ff91c1" data-original="#ff91c1" style="" class=""/></g><g><path d="m493.147 153.708c-100.973-31.363-140.951-99.593-192.289-107.004-11.424-1.649-22.182-.818-32.098 1.969 47.231 13.482 88.249 75.55 183.179 105.035 15.407 4.785 23.157 22.018 16.396 36.701-7.105 15.432-15.57 35.122-22.021 54.106-31.453 92.566-65.016 173.867-164.454 209.205-16.387 5.996-32.361 9.65-47.994 11.326 28.576 2.99 58.148.037 89.202-11.326 99.438-35.337 133.001-116.639 164.454-209.205 6.451-18.985 14.916-38.675 22.021-54.106 6.761-14.684-.989-31.916-16.396-36.701z" fill="#ff7db6" data-original="#ff7db6" style="" class=""/></g><g><g fill="#fff"><path d="m101.885 299.118-9.226 6.182s3.582-2.116 9.226-6.182z" fill="#18191a" data-original="#ffffff" style="" class=""/><path d="m401.178 194.356c6.944-.34 11.061-.919 11.061-.919z" fill="#18191a" data-original="#ffffff" style="" class=""/><path d="m299.415 170.621c-35.815 42.152-78.579 56.633-132.656 46.434-14.108 41.501-48.35 70.159-64.874 82.064l3.2-2.144s81.147-60.022 159.52-12.741c31.94-85.893 132.737-89.558 132.737-89.558l3.836-.319c-20.329.994-64.932-.066-101.763-23.736z" fill="#18191a" data-original="#ffffff" style="" class=""/></g></g></g></g></g></svg>
