<svg xmlns="http://www.w3.org/2000/svg" width="324" height="324" viewBox="0 0 324.56 324.38" fill="#fefefe"><path d="M309.48 106.57c-17.7-43.95-49-74-93.55-92.1L301 .6c5.5-.86 11.1-1.23 16 2 5.56 3.7 8.48 9.1 7.4 15.8l-14.33 87.05a5.41 5.41 0 0 1-.59 1.11zM107.43 310l-39.7 6.47-48.77 7.7C7.4 325.74-.45 318.46 0 306.75c.45-11.14 3.2-22 5-33l8.44-52.2c.2-1.27.6-2.52 1-4.33 17.56 44.2 48 74.88 93 92.78zM166.9 26.84C90.16 24.22 26.17 88.6 25.92 160.73c-.28 77.4 63.7 135.17 131.08 137.4 76.76 2.53 141.5-60.55 140.8-135.5 1.48-74.73-63.34-133.46-130.9-135.77zm-7.56 223.34c-42.12-1.28-85-37.4-84.27-87.8 0-48.62 38.2-87.07 86.52-87.08 49.4 0 88 38.07 88.3 86.56.32 53.97-46 89.67-90.54 88.32z"/></svg>