<svg xmlns="http://www.w3.org/2000/svg" width="520" height="520" viewBox="0 0 520.31 520.26" fill="#fefefe"><path d="M124.4 2.18c54.2-12 169.33 27.47 200.42 68.57l-62.68-10.2c-6.74-1.1-13.2.93-19.8 1.55-9.27.88-18.48 2.3-27.7 3.56-2.27.3-4 0-5.68-1.92-23.2-26.15-51.1-46-82.83-60.45a18.53 18.53 0 0 1-1.73-1.11zm71.04 448.22l23.34 3.75 37.87 6.3c7.63 1 15.2-1.35 22.8-2.05 8.6-.8 17.18-2 25.74-3.22a4.77 4.77 0 0 1 4.74 1.81 248.16 248.16 0 0 0 82.37 60.19 8.84 8.84 0 0 1 1.2.85c-12.82 5.94-70.08-.7-105.87-12.7-34.54-11.58-65.47-29.5-92.18-54.94zM1.26 395.1c-8-71.1 22.57-152.7 69-199.52-2.9 10.15-5.68 19.67-7.53 29.42a192 192 0 0 0 1.1 77.77c.93 4.22.5 7-3 10.18C36.47 334.8 18 361 4 390.47l-1.74 3.58a7.15 7.15 0 0 1-1 1.04zm447.6-70c2.73-9.75 5.46-18.9 7.3-28.32a192.8 192.8 0 0 0-1.21-80.22c-.75-3.3-.25-5.27 2.34-7.62a246.91 246.91 0 0 0 57.82-78.65l2.25-4.57c14.26 48.35-25.35 164.06-68.5 199.38zM259.87 80C164 77.3 79.85 160.7 78.64 258.13c-1.2 97.6 79.8 180.12 175.28 183 102.64 3.06 185.62-82 186.37-178.74.8-103.93-87.6-185.23-180.42-182.4zm-.1 296.77C194 376.8 143.43 325.78 143 260c-.45-63.28 53.4-118.15 120.63-116.34 58.26 1.58 113.28 51.84 112.7 118.4-.62 63.26-55.1 116.64-116.54 114.74z"/></svg>