<svg xmlns="http://www.w3.org/2000/svg" width="329" height="329" viewBox="0 0 320.36 329.99" fill="#fefefe"><path d="M160.94 60.9c-20.33-.48-38.6 5.3-55.43 16-6 3.8-6 3.9-.72 8.4 6.3 5.32 9.4 11.8 6.66 19.88-2.48 7.34-7.4 12.58-15.44 14L29.6 130.3c-14 2.14-24-8.26-21.8-22.34L18.92 41c1.32-7.67 6.56-12.4 13.68-14.4 6.9-1.94 13.46-.76 18.73 4.9 5.5 5.92 5.58 5.82 12.1.83C97.17 6.5 135.38-2.66 177.37.65c65.23 5.14 122.88 58.2 137.66 117a185.11 185.11 0 0 1 5.31 36.45 16.62 16.62 0 0 1-13.93 17.21c-10.14 1.85-20.25 4.12-30.48 5.1-7.65.75-18-5.6-15.94-16.23 1.43-7.38-.36-14.9-1.87-22.23-8.9-43.03-50.23-78.96-97.18-77.05zM.16 179.6c-1.28-15.6 4.9-21.34 19.4-23.43 5.76-.83 11.58-1.5 17.2-2.9a23.67 23.67 0 0 1 17.8 2.31c4.83 2.8 6.12 8.7 6.23 14.3.44 21.2 6.35 40.52 18.9 57.82 32.73 45.14 93.74 52.22 135.6 24.13 5.35-3.6 5.56-3.83.68-8.18-9.86-8.8-10.12-17.06-2.33-28.1 2.33-3.3 5.86-4.83 9.72-5.48l67.86-11.57c11.18-2.2 23.67 8.12 21.7 20.73l-11.6 68.87c-2.75 14.66-19.26 19.7-30.7 10-2.63-2.23-4.6-6.74-7.67-6.45-2.93.28-5.45 4-8.3 6.05C207.5 331 156 339.9 102.5 318 41.22 293 6.66 246.05.16 179.6z"/></svg>
