<svg xmlns="http://www.w3.org/2000/svg" width="439" height="439" viewBox="0 0 418.5 439.07" fill="#fefefe"><path d="M147 47.84c8.65 24.6 16.6 32.8 38.75 41.1-.5 1.9-2.17 2.86-3.4 4.1q-59.74 59.78-119.48 119.5c-9.16 9.16-9.8 20.1-1.78 30.05 5.53 6.86 18.15 7.8 25.3 1.5 5.86-5.18 11.33-10.8 16.9-16.3l117.9-116.73c8.77-8.6 16.77-18 26.9-25.25 24.82-17.7 67.22-16.55 92.83 8.88 26.53 26.34 27.88 59.52 17.23 84.4a68.41 68.41 0 0 1-14.68 21.23q-55 55.27-110 110.53-18.67 18.78-37.34 37.58c-8 8-8.7 19.6-1.77 26.88 8.87 9.33 19.92 9.93 29 1.2 9.75-9.33 19.27-18.9 28.82-28.42q59.46-59.3 118.87-118.6c9.62-9.6 28-9.8 37.82-.48 11.9 11.32 13 28.83 2 40.25-9.58 10-19.63 19.5-29.43 29.24q-58.08 57.83-116.12 115.7c-12.84 12.84-27.53 21.6-45.85 24.16-43.57 6.1-84.5-28.7-85.34-72.66-.43-22.53 7.18-41.45 23.24-57.4q72.33-71.88 144.28-144.13c3.64-3.63 6.3-7.64 7.08-12.83 1.24-8.25-2.3-14.7-10-17.9l-6.45-2.7a14.43 14.43 0 0 0-16.39 3.3Q214 196.17 152 258.24c-10.83 10.8-20.7 22.75-33.3 31.58-24.66 17.26-51.3 19.38-77.87 6-26.1-13.15-39.6-35.64-40.75-65.1-.9-22.6 7.25-41.52 23.2-57.42q60.18-60 120.15-120.18c1.26-1.26 2.04-3 3.57-5.28zm51.36 27.23c-20.9 0-36.77-16.32-37.3-37.35C160.58 19 178.44-.15 199 0c20 .15 37.66 19 37.34 37.82-.34 21.62-18.93 38.7-37.98 37.25z"/></svg>
