<svg id="Capa_1" enable-background="new 0 0 512 512" height="512" viewBox="0 0 512 512" width="512" xmlns="http://www.w3.org/2000/svg"><g><path d="m469.134 352.108c-6.836-3.953-14.844-4.046-21.505-.957l-25.623-14.793 22.493-7.196c7.072-2.265 10.964-9.821 8.699-16.893-2.265-7.062-9.821-10.953-16.893-8.699l-45.727 14.649-27.455-15.853 22.493-7.206c7.062-2.265 10.953-9.821 8.699-16.883-2.265-7.072-9.831-10.964-16.893-8.699l-45.727 14.639-7.093-4.097c1.76-6.197 2.728-12.734 2.728-19.508 0-9.615-1.915-18.787-5.374-27.157l9.759-5.631 45.367 14.525c6.331 2.018 13.413-.607 16.409-6.537 3.829-7.587-.103-16.45-7.855-18.942l-22.493-7.196 27.455-15.853 45.367 14.525c6.331 2.028 13.414-.607 16.409-6.537 3.84-7.587-.093-16.45-7.855-18.931l-22.483-7.206 25.612-14.783c6.661 3.078 14.669 2.996 21.505-.957 11.18-6.455 15.009-20.743 8.555-31.912-6.455-11.169-20.733-14.999-31.913-8.555-6.836 3.953-10.922 10.84-11.581 18.159l-25.612 14.783 5.003-23.07c1.575-7.258-3.027-14.412-10.274-15.977-7.247-1.575-14.402 3.027-15.977 10.274l-10.181 46.922-27.463 15.854 5.013-23.08c1.575-7.247-3.026-14.402-10.274-15.977-7.257-1.575-14.412 3.027-15.977 10.284l-10.191 46.922-11.097 6.403c-10.006-10.305-23.09-17.603-37.77-20.403v-14.217l35.536-32.283c5.497-4.993 5.909-13.486.916-18.973-4.982-5.497-13.485-5.909-18.972-.916l-17.48 15.874v-31.707l35.536-32.283c5.497-4.982 5.909-13.475.916-18.973-4.982-5.487-13.485-5.899-18.972-.906l-17.48 15.874v-29.575c6.001-4.231 9.924-11.211 9.924-19.106-.001-12.909-10.46-23.368-23.359-23.368s-23.358 10.459-23.358 23.368c0 7.896 3.922 14.875 9.924 19.106v29.576l-17.48-15.874c-6.032-5.477-15.678-4.447-20.331 2.666-3.634 5.559-2.368 13.002 2.553 17.47l35.258 32.026v31.707l-17.48-15.874c-6.032-5.477-15.678-4.447-20.331 2.666-3.634 5.559-2.368 13.012 2.553 17.48l35.258 32.026v14.227c-14.669 2.8-27.733 10.099-37.729 20.393l-11.097-6.403-10.191-46.922c-1.565-7.258-8.72-11.859-15.977-10.284-7.247 1.575-11.849 8.73-10.274 15.977l5.013 23.08-27.465-15.853-10.181-46.922c-1.575-7.247-8.73-11.849-15.977-10.274-7.247 1.565-11.849 8.719-10.274 15.977l5.003 23.07-25.612-14.783c-.659-7.319-4.746-14.206-11.581-18.159-11.18-6.444-25.458-2.615-31.913 8.555-6.455 11.169-2.625 25.458 8.555 31.912 6.836 3.953 14.845 4.035 21.505.957l25.612 14.783-22.483 7.206c-7.762 2.481-11.694 11.344-7.855 18.931 2.996 5.93 10.078 8.565 16.409 6.537l45.367-14.525 27.455 15.853-22.493 7.196c-7.752 2.491-11.684 11.355-7.855 18.942 2.996 5.929 10.078 8.555 16.409 6.537l45.367-14.525 9.759 5.631c-3.459 8.369-5.374 17.542-5.374 27.157 0 6.774.968 13.311 2.728 19.508l-7.093 4.097-45.727-14.639c-7.062-2.265-14.628 1.626-16.893 8.699-2.255 7.062 1.637 14.618 8.699 16.883l22.493 7.206-27.455 15.853-45.726-14.651c-7.072-2.254-14.628 1.637-16.893 8.699-2.265 7.072 1.627 14.628 8.699 16.893l22.493 7.196-25.623 14.793c-6.66-3.088-14.669-2.996-21.505.957-11.18 6.444-15.009 20.733-8.555 31.913 6.454 11.169 20.743 14.999 31.913 8.544 6.835-3.943 10.922-10.84 11.581-18.149l25.612-14.793-5.003 23.08c-1.729 7.958 3.984 15.802 12.467 16.275 6.64.371 12.456-4.457 13.866-10.943l10.109-46.551 27.455-15.853-5.013 23.07c-1.73 7.958 3.984 15.802 12.477 16.275 6.63.371 12.446-4.447 13.856-10.943l10.109-46.551 5.775-3.335c10.439 13.516 25.602 23.183 43.03 26.508v5.003l-35.258 32.026c-4.921 4.468-6.187 11.921-2.553 17.48 4.653 7.113 14.299 8.143 20.331 2.666l17.48-15.874v31.707l-35.258 32.026c-4.921 4.468-6.187 11.911-2.553 17.47 4.653 7.113 14.299 8.143 20.331 2.666l17.48-15.874v29.576c-6.001 4.231-9.924 11.211-9.924 19.106 0 12.909 10.459 23.368 23.358 23.368s23.358-10.459 23.358-23.368c0-7.896-3.922-14.875-9.924-19.106v-29.577l17.48 15.874c5.487 4.993 13.99 4.581 18.972-.906 4.993-5.497 4.581-13.99-.916-18.972l-35.536-32.283v-31.707l17.48 15.874c5.487 4.982 13.99 4.581 18.972-.916 4.993-5.487 4.581-13.98-.916-18.972l-35.536-32.283v-4.993c17.439-3.325 32.623-12.991 43.072-26.518l5.775 3.335 10.109 46.551c1.41 6.496 7.227 11.313 13.856 10.943 8.493-.474 14.206-8.318 12.477-16.275l-5.013-23.07 27.455 15.853 10.109 46.551c1.41 6.485 7.227 11.313 13.866 10.943 8.483-.474 14.196-8.318 12.467-16.275l-5.003-23.08 25.612 14.793c.659 7.309 4.746 14.206 11.581 18.149 11.169 6.455 25.458 2.625 31.913-8.544 6.456-11.181 2.626-25.47-8.554-31.914zm-213.134-57.154c-18.972 0-34.342-15.369-34.342-34.342 0-18.962 15.369-34.342 34.342-34.342s34.342 15.38 34.342 34.342c0 18.972-15.37 34.342-34.342 34.342z" fill="#d8ecfe"/><path d="m477.71 128.021c-5.837-10.109-18.098-14.206-28.66-10.109 4.807 1.853 9.038 5.302 11.818 10.109 6.455 11.169 2.625 25.458-8.555 31.912-1.06.607-2.141 1.132-3.243 1.554 6.362 2.45 13.733 2.121 20.084-1.554 11.18-6.454 15.01-20.743 8.556-31.912zm-8.576 224.087c-6.362-3.675-13.733-4.015-20.095-1.554 1.102.422 2.193.947 3.253 1.554 11.18 6.444 15.009 20.733 8.555 31.913-2.779 4.807-7.01 8.256-11.808 10.109 10.562 4.097 22.812 0 28.649-10.109 6.456-11.18 2.626-25.469-8.554-31.913zm-24.614-169.229-22.483-7.206 25.612-14.783c-4.271-.169-8.161-.151-11.944-1.533-.895-.327-1.888-.246-2.713.231l-21.521 12.452c-2.414 1.397-2.027 4.994.629 5.845l15.577 4.993c7.762 2.481 11.694 11.344 7.854 18.931-1.05 2.079-2.615 3.757-4.468 4.962l4.9 1.575c6.331 2.028 13.414-.607 16.409-6.537 3.843-7.585-.09-16.449-7.852-18.93zm-30.934 199.824-5.007-23.076-11.52-7.799c-2.427-1.643-5.608.552-4.932 3.404l3.31 13.971c1.054 4.448 1.637 9.003 1.615 13.574-.04 8.385-1.984 10.774-4.951 13.195 2.481 2.038 5.641 3.191 9.018 3.006 8.483-.473 14.196-8.318 12.467-16.275zm-27.949-165.832-22.493-7.196 27.455-15.853-9.192-3.022c-.866-.285-1.811-.189-2.602.264l-27.919 15.987c-2.473 1.416-2.019 5.11.723 5.885l18 5.088c7.752 2.491 10.871 10.202 7.041 17.789-1.05 2.09-2.615 3.757-4.468 4.962l4.9 1.575c6.331 2.018 13.413-.607 16.409-6.537 3.83-7.587-.103-16.451-7.854-18.942zm-30.935 131.83-5.012-23.073-11.721-6.524c-2.366-1.317-5.201.701-4.731 3.368l4.622 26.229c1.112 5.116-.855 10.181-4.653 13.28 2.481 2.028 5.641 3.181 9.018 2.996 8.493-.474 14.207-8.319 12.477-16.276zm-27.372-88.089c0-9.615-1.915-18.787-5.374-27.157l3.747-2.162-10.83-3.469-8.609 4.14c-1.535.738-2.234 2.545-1.581 4.118 3.245 7.82 7.236 18.602 3.87 33.211-.333 1.444.358 2.932 1.681 3.597l14.367 7.228c1.761-6.196 2.729-12.732 2.729-19.506zm-21.464-203.53c-4.797-5.281-12.868-5.857-18.355-1.421.535.422 1.04.896 1.513 1.421 4.993 5.497 4.581 13.99-.916 18.973l-34.483 31.326c-.671.609-1.053 1.474-1.053 2.38v38.316c0 2.791 3.312 4.257 5.378 2.38l11.464-10.413v-31.707l35.536-32.283c5.497-4.982 5.909-13.475.916-18.972zm-.916 86.977c5.497-4.993 5.909-13.486.916-18.973-4.797-5.291-12.868-5.868-18.355-1.431.535.432 1.04.906 1.513 1.431 4.993 5.487 4.581 13.98-.916 18.973l-34.483 31.326c-.671.609-1.053 1.474-1.053 2.38v20.142c0 1.54 1.096 2.866 2.608 3.157 12.472 2.403 21.873 4.578 32.129 12.549 1.244.967 3.003.91 4.163-.156l9.185-8.446c-8.915-7.155-19.569-12.23-31.243-14.453v-14.217zm0 223.882-35.536-32.283v-4.993c12.672-2.419 24.151-8.174 33.488-16.347l-5.521-7.654c-1.123-1.557-3.373-1.811-4.771-.496-10.149 9.546-22.261 12.094-36.966 12.695-1.717.07-3.072 1.491-3.072 3.209v12.163c0 .906.383 1.771 1.053 2.38l34.483 31.326c5.497 4.993 5.909 13.486.916 18.972-.474.525-.978.999-1.513 1.431 5.487 4.427 13.558 3.86 18.355-1.431 4.993-5.487 4.581-13.979-.916-18.972zm0 68.004-35.536-32.283v-31.707l-11.464-10.413c-2.066-1.877-5.378-.411-5.378 2.38v38.316c0 .906.383 1.771 1.053 2.38l34.483 31.326c5.497 4.982 5.909 13.475.916 18.972-.474.525-.978.999-1.513 1.421 5.487 4.437 13.558 3.86 18.355-1.421 4.993-5.495 4.581-13.988-.916-18.971zm-46.344-435.8c-3.912-.43-7.669.114-11.047 1.43 8.74 3.377 14.937 11.859 14.937 21.793 0 7.372-3.419 13.945-8.757 18.228-.747.599-1.167 1.515-1.167 2.472v36.014c0 2.791 3.312 4.257 5.378 2.38l11.464-10.413v-29.575c6.64-4.681 10.735-12.728 9.788-21.657-1.144-10.777-9.823-19.489-20.596-20.672zm10.808 469.38v-14.278l-11.464-10.413c-2.066-1.877-5.378-.411-5.378 2.38v20.717c0 .957.42 1.873 1.167 2.472 5.338 4.283 8.757 10.857 8.757 18.228 0 9.934-6.197 18.417-14.937 21.793 2.615 1.019 5.456 1.575 8.421 1.575 12.899 0 23.358-10.459 23.358-23.368-.001-7.895-3.923-14.874-9.924-19.106z" fill="#c4e2ff"/></g></svg>