<svg xmlns="http://www.w3.org/2000/svg" width="411" height="411" viewBox="0 0 411.7 410.71" fill="#fefefe"><path d="M310.82 98.54c-17.87 32.65-3.23 69.82 23.83 84.5l-27.82 8.23-85.68 24.84c-3.34 1-4.83 2.5-5.75 5.73Q200 276 184.43 330.12c-.36 1.26-.8 2.5-1.42 4.43a61.23 61.23 0 0 0-36.94-29.86c-16-4.9-31.55-2.87-46.45 4.6-1-1.47-.22-2.68.1-3.85l30.5-106.87c1-3.44.15-5.4-2.2-7.74Q70.32 133.35 12.82 75.7C-7.88 54.9-2.75 19.14 22.74 5.13 39.6-4.14 61.34-.46 74.68 13l116.47 116.7c2.25 2.27 4.2 1.75 6.72 1q54.3-15.84 108.64-31.56c1.4-.4 2.74-1.25 4.3-.6zM128.77 410.7c-26.9 0-47.66-20.78-47.6-47.68 0-26.32 21.47-47.27 48.32-47.25 26.2 0 46.8 20.9 46.8 47.45 0 27.38-20.12 47.48-47.52 47.48zm235.5-233.86c-23 1.56-48.33-20.9-48-48.37.3-23.66 21.2-46.76 48.95-46 26.2.68 46.54 20.44 46.46 46.53-.05 27.17-20.54 47.85-47.4 47.84z"/></svg>
