<svg xmlns="http://www.w3.org/2000/svg" width="333" height="333" viewBox="0 0 333.15 279.38" fill="#fefefe"><path d="M67.56 165.25c5.17-.76 6.5 2.47 6.77 6.2a104.09 104.09 0 0 1 0 12.49c-.12 2.68.88 3.4 3.45 3.34 7.66-.14 15.36.47 23-.17 13.46-1.13 23.18-8.47 29.78-20 5.35-9.38 6.75-19.67 6.85-30.3.35-38.57 14.9-70.8 43.76-96.42 17.13-15.2 37.55-21.43 60.22-21 4.5.07 9-.2 13.5.08 3.23.2 3.9-1.07 3.83-4-.08-3.43-.6-6.92 1.08-10.3 2.83-5.67 7.2-6.8 12.2-2.74l33.16 27.28 21.92 18.15c8 7 8.23 11.17.06 18.05l-55.76 46.17c-2.76 2.3-5.6 3.08-8.7 1.72s-3.93-4.35-4-7.5c-.07-4-.08-8 0-12 0-2-.34-3.12-2.7-3-7.48.23-15.08-.44-22.44.6-16.64 2.32-25.84 13.73-32.1 28.2-4 9.3-3.05 19.27-3.78 29-2.8 37.2-16.33 69.1-46.7 92.24a84.94 84.94 0 0 1-53.4 17.9h-20c-2.32-.05-3.34.62-3.18 3.07.16 2.66 0 5.33 0 8 0 3.5-.54 6.9-4 8.48s-6.4.07-9.16-2.16l-53.1-42.35c-10.45-8-10.8-15.58.1-24.08 17.46-13.6 34.45-27.8 51.55-41.86 2.44-2.08 4.87-3.48 7.77-3.1z"/><path d="M121.08 100.66c-10.44-10.15-23.27-9.46-36-9.37-10.68.07-10.66 0-10.7 10.5a31.56 31.56 0 0 1-.51 7.42c-1.3 5.23-6.72 7.17-10.93 3.77Q33.24 89 3.76 64.72c-5.18-4.28-4.95-11.55.32-15.88l57.25-46.7A9.88 9.88 0 0 1 71.22.7c3.07 1.12 3.18 4.7 3.22 7.8.14 10.84.17 11 11.32 10.8 17.3-.33 34.24.94 50 9a111.57 111.57 0 0 1 14.05 8.52c1.7 1.2 2.6 2 .85 4.2-13.78 17.08-22.9 36.5-28.5 57.65a14.28 14.28 0 0 1-1.07 2.01zm92.8 76.5c12.66 12.44 27.75 9.9 42.27 10.1 2 0 2.55-.88 2.52-2.7-.07-3.83 0-7.66 0-11.5 0-3 .64-6.2 3.28-7.36a9.07 9.07 0 0 1 9.44 1.09l57.32 47.4c5.85 4.92 5.55 11.55-.38 16.42q-28.38 23.28-56.93 46.33c-2.6 2.12-5.6 3.26-8.8 1.74s-3.8-4.4-3.92-7.55v-.5c-.22-3.62 1.53-8.36-.7-10.6-2.47-2.44-7.3-1-11-.77-21.12 1.22-40.52-3.6-58.3-15.28-4-2.62-4.36-4.2-1.36-8.1 13.13-17.1 21.66-36.47 26.54-58.73z"/></svg>
