<svg xmlns="http://www.w3.org/2000/svg" width="381" height="381" viewBox="0 0 381.33 381.04" fill="#fefefe"><path d="M336.34 274.12c-40.72-1.13-63.76 31.6-62 61.5-1.77.42-2.6-1.1-3.7-1.9Q170.5 259.27 70.35 184.8q-33.66-25-67.32-50c-2.2-1.67-3.9-2.8-2.54-6.37C24.17 66.94 66.18 23.88 128.15.7c3.2-1.2 5.1-1 7.38 2.06Q235.1 137.44 334.93 272c.37.45.7 1 1.4 2.12zm-2.77 105.18a45.62 45.62 0 0 1-45.51-45.76c-.1-26.3 19.95-46.22 46.46-46.2 25.08 0 45 20.5 45 46.17a45.6 45.6 0 0 1-45.95 45.8zm-5.07-268.45q-13.5 0-27 0c-8.66 0-12.62-3.53-12.72-12.34l-.07-54.48c0-3.3 1.6-6.12 3-8.88a4.72 4.72 0 0 1 5-2.63c5.3 1.07 10.84 1.18 14.5 6.48 2.2 3.2 5.36 7.6 8.4 7.84 3.25.27 5.8-4.82 8.64-7.57l15.57-15.53c6.85-6.8 12.86-6.8 19.68 0 4.37 4.34 8.92 8.54 13 13.12 6.47 7.2 6.36 11.83.08 18.55-7 7.54-14.26 14.93-21.57 22.22-2 1.95-2.26 3.12-.08 5.1 3.57 3.24 6.8 6.86 10.3 10.17 3.12 2.94 4.35 6.32 2.7 10.34-1.82 4.4-4.56 7.7-9.95 7.65l-29.46-.03zM111.08 328q0 12.5 0 25a14.65 14.65 0 0 1-.11 4c-1.1 3.74-1.33 8.82-5.77 9.7a15.64 15.64 0 0 1-13.83-3.41 69.64 69.64 0 0 1-8.22-8.7c-2.23-2.87-3.6-2.17-5.75 0l-21.5 21.6c-6.6 6.54-12.7 6.5-19.33-.07-4.14-4.1-8-8.54-12.43-12.28-6.3-5.32-6.08-16 .14-21.5 7.08-6.3 13.4-13.45 20.28-20 2.44-2.32 2.4-3.84 0-5.93-1.6-1.42-2.8-3.34-4.48-4.68-4.42-3.55-6.42-8.18-7.16-13.7-.6-4.62 1-7.77 5.67-8.8a37.51 37.51 0 0 1 7.93-.71q24.73-.08 49.46 0c10.77 0 15.1 4.32 15.1 15q.03 12.2.01 24.48z"/></svg>